# AST/ASF file generated using VICON BodyLanguage
# -----------------------------------------------
:version 1.10
:name VICON
:units
  mass 1.0
  length 0.45
  angle deg
:documentation
   .ast/.asf automatically generated from VICON data using
   VICON BodyBuilder and BodyLanguage model FoxedUp or BRILLIANT.MOD
:root
   order TX TY TZ RX RY RZ
   axis XYZ
   position 0 0 0  
   orientation 0 0 0 
:bonedata
  begin
     id 1 
     name lhipjoint
     direction 0.707368 -0.647095 0.284426 
     length 2.60678 
     axis 0 0 0  XYZ
  end
  begin
     id 2 
     name lfemur
     direction 0.34202 -0.939693 0  
     length 6.63812  
     axis 0 0 20  XYZ
    dof rx ry rz
    limits (-160.0 20.0)
           (-70.0 70.0)
           (-60.0 70.0)
  end
  begin
     id 3 
     name ltibia
     direction 0.34202 -0.939693 0   
     length 7.51178   
     axis 0 0 20   XYZ
    dof rx
    limits (-10.0 170.0)
  end
  begin
     id 4 
     name lfoot
     direction 0.121251 -0.333133 0.935051   
     length 1.83716   
     axis -90 7.62852e-016 20   XYZ
    dof rx rz
    limits (-45.0 90.0)
           (-70.0 20.0)
  end
  begin
     id 5 
     name ltoes
     direction 1.53611e-011 -4.21962e-011 1   
     length 0.916133   
     axis -90 7.62852e-016 20   XYZ
    dof rx
    limits (-90.0 20.0)
  end
  begin
     id 6 
     name rhipjoint
     direction -0.692419 -0.660507 0.290321   
     length 2.55385  
     axis 0 0 0  XYZ 
  end
  begin
     id 7 
     name rfemur
     direction -0.34202 -0.939693 0   
     length 7.29079   
     axis 0 0 -20   XYZ
    dof rx ry rz
    limits (-160.0 20.0)
           (-70.0 70.0)
           (-70.0 60.0)
  end
  begin
     id 8 
     name rtibia
     direction -0.34202 -0.939693 0   
     length 7.47143   
     axis 0 0 -20   XYZ
    dof rx
    limits (-10.0 170.0)
 end
 begin
     id 9 
     name rfoot
     direction -0.119907 -0.329441 0.936532   
     length 1.79439  
     axis -90 -7.62852e-016 -20   XYZ
    dof rx rz
    limits (-45.0 90.0)
           (-20.0 70.0)
  end
  begin
     id 10 
     name rtoes
     direction -1.53571e-011 -4.21961e-011 1   
     length 0.896039   
     axis -90 -7.62852e-016 -20   XYZ
    dof rx
    limits (-90.0 20.0)
  end
  begin
     id 11 
     name lowerback
     direction 0.0367721 0.992912 -0.113016   
     length 1.73542   
     axis 0 0 0   XYZ
    dof rx ry rz
    limits (-20.0 45.0)
           (-30.0 30.0)
           (-30.0 30.0)
  end
  begin
     id 12 
     name upperback
     direction -0.000314626 0.990678 0.136227   
     length 1.7514   
     axis 0 0 0   XYZ
    dof rx ry rz
    limits (-20.0 45.0)
           (-30.0 30.0)
           (-30.0 30.0)
  end
  begin
     id 13 
     name thorax
     direction -0.0226159 0.981151 0.191917   
     length 1.71471   
     axis 0 0 0   XYZ
    dof rx ry rz
    limits (-20.0 45.0)
           (-30.0 30.0)
           (-30.0 30.0)
  end
  begin
     id 14 
     name lowerneck
     direction 0.0219333 0.998071 0.0580739   
     length 1.65882   
     axis 0 0 0   XYZ
    dof rx ry rz
    limits (-20.0 45.0)
           (-30.0 30.0)
           (-30.0 30.0)
  end
  begin
     id 15 
     name upperneck
     direction 0.0384529 0.980058 -0.194957   
     length 1.6612   
     axis 0 0 0   XYZ
    dof rx ry rz
    limits (-20.0 45.0)
           (-30.0 30.0)
           (-30.0 30.0)
  end
  begin
     id 16
     name head
     direction 0.00592123 0.997421 -0.0715234  
     length 1.68077  
     axis 0 0 0   XYZ
    dof rx ry rz
    limits (-20.0 45.0)
           (-30.0 30.0)
           (-30.0 30.0)
  end
  begin
     id 17 
     name lclavicle
     direction 0.904803 0.417826 0.0821728  
     length 3.42227  
     axis 0 0 0   XYZ
    dof ry rz
    limits (-20.0 10.0)
           (0.0 20.0)
  end
  begin
     id 18 
     name lhumerus
     direction 1 -4.48965e-011 -2.68786e-027   
     length 5.11878   
     axis -180 -30 -90   XYZ
    dof rx ry rz
    limits (-60.0 90.0)
           (-90.0 90.0)
           (-90.0 90.0)
  end
  begin
     id 19
     name lradius
     direction 1 -4.48965e-011 2.61168e-028   
     length 3.59971   
     axis -180 -30 -90   XYZ
    dof rx
    limits (-10.0 170.0)
  end
  begin
     id 20
     name lwrist
     direction 1 -4.48965e-011 1.58672e-027   
     length 1.79985   
     axis -1.65735e-015 90 90   XYZ
    dof ry
    limits (-180.0 0.0)
 end
  begin
     id 21 
     name lhand
     direction 1 -4.48942e-011 3.17344e-027   
     length 0.62877   
     axis -2.02492e-015 90 90   XYZ
    dof rx rz
    limits (-90.0 90.0)
           (-45.0 45.0)
  end
  begin
     id 22 
     name lfingers
     direction 1 -4.49011e-011 6.34687e-027   
     length 0.506931   
     axis -4.04985e-015 90 90   XYZ
    dof rx
    limits (0.0 90.0)
  end
  begin
     id 23
     name lthumb
     direction 0.707107 -6.34982e-011 0.707107   
     length 0.727854   
     axis -90 45 2.85299e-015   XYZ
    dof rx rz
    limits (-45.0 45.0)
           (-45.0 45.0)
  end
  begin
     id 24 
     name rclavicle
     direction -0.945647 0.32488 0.0143075   
     length 3.52737  
     axis 0 0 0   XYZ 
    dof ry rz
    limits (-10.0 20.0)
           (-20.0 0.0)
  end
  begin
     id 25 
     name rhumerus
     direction -1 -4.48962e-011 1.92182e-027  
     length 5.4902   
     axis -180 30 90   XYZ
    dof rx ry rz
    limits (-90.0 60.0)
           (-90.0 90.0)
           (-90.0 90.0)
  end
  begin
     id 26 
     name rradius
     direction -1 -4.48967e-011 -5.97193e-028   
     length 3.20659   
     axis -180 30 90   XYZ
    dof rx
    limits (-10.0 170.0)
  end
  begin
     id 27 
     name rwrist
     direction -1 -4.48964e-011 1.58672e-027   
     length 1.6033   
     axis -1.65735e-015 -90 -90   XYZ
    dof ry
    limits (-180.0 0.0)
  end
  begin
     id 28
     name rhand
     direction -1 -4.49006e-011 3.17344e-027   
     length 0.691885   
     axis -2.02492e-015 -90 -90   XYZ
    dof rx rz
    limits (-90.0 90.0)
           (-45.0 45.0)
  end
  begin
     id 29
     name rfingers
     direction -1 -4.48908e-011 6.34687e-027   
     length 0.557815   
     axis -4.04985e-015 -90 -90   XYZ
    dof rx
    limits (0.0 90.0)
  end
  begin
     id 30
     name rthumb
     direction -0.707107 -6.34999e-011 0.707107   
     length 0.800915   
     axis -90 -45 -2.85299e-015   XYZ
    dof rx rz
    limits (-45.0 45.0)
           (-45.0 45.0)
  end
:hierarchy
  begin
    root lhipjoint rhipjoint lowerback
    lhipjoint lfemur
    lfemur ltibia
    ltibia lfoot
    lfoot ltoes
    rhipjoint rfemur
    rfemur rtibia
    rtibia rfoot
    rfoot rtoes
    lowerback upperback
    upperback thorax
    thorax lowerneck lclavicle rclavicle
    lowerneck upperneck
    upperneck head
    lclavicle lhumerus
    lhumerus lradius
    lradius lwrist
    lwrist lhand lthumb
    lhand lfingers
    rclavicle rhumerus
    rhumerus rradius
    rradius rwrist
    rwrist rhand rthumb
    rhand rfingers
  end

#!OML:ASF I:\Actors\actors\Patient Classification 1\Patient 1\Session 1\Subject1.ASF
:FULLY-SPECIFIED
:DEGREES
58
root 0.686929 17.4136 8.79186 9.64671 1.90652 -9.75711
lowerback -0.499235 0.460959 6.40595
upperback -9.81405 1.12358 2.01948
thorax -10.1024 0.112708 -1.50434
lowerneck -5.01912 -12.2049 -10.0189
upperneck 19.8584 -17.2037 6.86387
head 8.46862 -8.40041 2.17601
rclavicle 2.29596e-014 -3.37934e-014
rhumerus -47.0853 -24.9958 -68.0072
rradius 24.9813
rwrist 45.7253
rhand 6.65357 -30.2171
rfingers 7.12502
rthumb 31.9459 -57.4339
lclavicle 2.29596e-014 -3.37934e-014
lhumerus -51.3703 25.8434 66.758
lradius 25.5582
lwrist -19.8936
lhand -19.2461 -8.85168
lfingers 7.12502
lthumb 7.06761 21.0103
rfemur -5.01121 24.9709 25.9519
rtibia 2.33212
rfoot -12.6408 -27.8939
rtoes 4.39156
lfemur 1.33804 -46.1456 -6.97705
ltibia -4.50256
lfoot -19.0908 51.3424
ltoes 8.33385
59
root 0.687102 17.4138 8.7924 9.6526 1.84294 -9.70069
lowerback -0.492136 0.449939 6.32215
upperback -9.81796 1.10535 2.02382
thorax -10.1121 0.110723 -1.45184
lowerneck -5.02658 -12.1583 -10.0666
upperneck 19.7833 -17.1612 7.02672
head 8.45993 -8.37068 2.24136
rclavicle 2.08724e-015 1.39149e-014
rhumerus -47.0235 -24.8256 -68.1527
rradius 25.0534
rwrist 45.5678
rhand 6.69876 -30.2707
rfingers 7.12502
rthumb 31.9889 -57.4789
lclavicle 2.08724e-015 1.39149e-014
lhumerus -51.5118 25.9029 66.6687
lradius 25.5043
lwrist -20.0067
lhand -19.2461 -8.74716
lfingers 7.12502
lthumb 7.06756 21.1148
rfemur -5.02044 24.9591 25.8799
rtibia 2.34334
rfoot -12.6384 -27.8226
rtoes 4.48918
lfemur 1.37303 -46.0795 -7.07115
ltibia -4.51479
lfoot -19.1504 51.334
ltoes 8.46433
60
root 0.689127 17.4145 8.79559 9.58977 1.71975 -9.66304
lowerback -0.439554 0.452601 6.28387
upperback -9.80856 1.11046 2.02212
thorax -10.1323 0.115814 -1.43336
lowerneck -5.06283 -12.0807 -10.0725
upperneck 19.7772 -17.0839 7.18701
head 8.47216 -8.3201 2.30145
rclavicle 1.49089e-015 -1.11319e-014
rhumerus -46.972 -24.6385 -68.3025
rradius 25.0954
rwrist 45.4169
rhand 6.75157 -30.2861
rfingers 7.12502
rthumb 32.0392 -57.4841
lclavicle 1.49089e-015 -1.11319e-014
lhumerus -51.6602 25.9411 66.578
lradius 25.4307
lwrist -20.0331
lhand -19.2678 -8.71907
lfingers 7.12502
lthumb 7.04663 21.1436
rfemur -4.9341 24.9339 25.8549
rtibia 2.31145
rfoot -12.5532 -27.7227
rtoes 4.26694
lfemur 1.63806 -46.2129 -7.32262
ltibia -4.55922
lfoot -19.6208 51.5038
ltoes 9.08976
61
root 0.692097 17.4159 8.79958 9.47839 1.56324 -9.6588
lowerback -0.352714 0.475954 6.30801
upperback -9.77497 1.14755 2.01119
thorax -10.1432 0.131337 -1.46248
lowerneck -5.18438 -11.9444 -9.97675
upperneck 19.9242 -16.9506 7.37789
head 8.53923 -8.22837 2.35624
rclavicle -1.40143e-014 -3.18055e-015
rhumerus -46.9628 -24.5825 -68.3809
rradius 25.1409
rwrist 45.3665
rhand 6.73536 -30.2676
rfingers 7.12502
rthumb 32.0238 -57.4688
lclavicle -1.40143e-014 -3.18055e-015
lhumerus -51.769 25.9917 66.4693
lradius 25.3199
lwrist -20.1213
lhand -19.3236 -8.80179
lfingers 7.12502
lthumb 6.99278 21.0627
rfemur -4.78999 24.9051 25.8865
rtibia 2.27704
rfoot -12.4307 -27.5968
rtoes 3.9332
lfemur 2.05244 -46.5389 -7.65706
ltibia -4.60757
lfoot -20.2147 51.849
ltoes 9.70605
62
root 0.693705 17.4171 8.80053 9.45252 1.47767 -9.64175
lowerback -0.50664 0.451966 6.24631
upperback -9.636 1.09376 2.05649
thorax -9.89724 0.121135 -1.3757
lowerneck -5.44042 -11.821 -9.84228
upperneck 19.9626 -16.797 7.48031
head 8.58 -8.12803 2.3734
rclavicle -6.95746e-015 -2.78299e-015
rhumerus -46.6856 -24.5858 -68.5131
rradius 25.1217
rwrist 45.4162
rhand 6.68638 -30.2717
rfingers 7.12502
rthumb 31.9771 -57.4822
lclavicle -6.95746e-015 -2.78299e-015
lhumerus -51.6989 26.2587 66.429
lradius 25.24
lwrist -20.2606
lhand -19.3837 -8.68802
lfingers 7.12502
lthumb 6.93474 21.1784
rfemur -4.75851 24.9056 25.8677
rtibia 2.26849
rfoot -12.3533 -27.5322
rtoes 3.67936
lfemur 2.19141 -46.6372 -7.79517
ltibia -4.62331
lfoot -20.3157 51.9967
ltoes 9.74752
63
root 0.694546 17.4178 8.80035 9.49179 1.42999 -9.62163
lowerback -1.10173 0.353725 6.00506
upperback -9.24658 0.890348 2.23848
thorax -9.11914 0.0751779 -1.03422
lowerneck -5.9662 -11.679 -9.68687
upperneck 19.8452 -16.5634 7.51218
head 8.60061 -7.98659 2.36118
rclavicle 2.28602e-015 1.66979e-014
rhumerus -45.7982 -24.5241 -68.8397
rradius 24.9714
rwrist 45.524
rhand 6.68906 -30.2571
rfingers 7.12502
rthumb 31.9797 -57.4671
lclavicle 2.28602e-015 1.66979e-014
lhumerus -51.3082 27.1156 66.4113
lradius 25.121
lwrist -20.5798
lhand -19.3554 -8.4819
lfingers 7.12502
lthumb 6.96213 21.3836
rfemur -4.80073 24.9218 25.8172
rtibia 2.26706
rfoot -12.3582 -27.5047
rtoes 3.59337
lfemur 2.15249 -46.643 -7.80115
ltibia -4.60738
lfoot -20.3535 52.0391
ltoes 9.7937
64
root 0.695429 17.4175 8.80074 9.51976 1.37699 -9.64152
lowerback -0.595825 0.449415 6.30972
upperback -9.64832 1.08279 2.01859
thorax -9.85812 0.109118 -1.44956
lowerneck -5.71078 -11.6367 -9.60949
upperneck 20.1885 -16.5928 7.59202
head 8.67432 -7.99328 2.38252
rclavicle -2.18663e-015 3.18055e-014
rhumerus -46.6905 -24.5939 -68.6334
rradius 25.058
rwrist 45.4179
rhand 6.6633 -30.1905
rfingers 7.12502
rthumb 31.9551 -57.4054
lclavicle -2.18663e-015 3.18055e-014
lhumerus -51.8353 26.6116 65.976
lradius 25.0455
lwrist -20.7402
lhand -19.2812 -8.50527
lfingers 7.12502
lthumb 7.03373 21.3579
rfemur -4.82401 24.9644 25.8172
rtibia 2.26257
rfoot -12.4333 -27.4792
rtoes 3.82772
lfemur 2.16382 -46.7406 -7.79199
ltibia -4.59719
lfoot -20.5965 52.1104
ltoes 10.0885
65
root 0.695547 17.4161 8.80012 9.56412 1.34941 -9.65926
lowerback -0.451214 0.479624 6.42026
upperback -9.79312 1.14563 1.96183
thorax -10.1043 0.118538 -1.57617
lowerneck -5.5919 -11.5326 -9.54413
upperneck 20.2315 -16.4892 7.67834
head 8.65918 -7.93652 2.42205
rclavicle 1.05356e-014 -2.3059e-014
rhumerus -46.9796 -24.6207 -68.5543
rradius 25.0843
rwrist 45.3581
rhand 6.68194 -30.161
rfingers 7.12502
rthumb 31.9729 -57.3724
lclavicle 1.05356e-014 -2.3059e-014
lhumerus -52.0337 26.5197 65.8167
lradius 24.9903
lwrist -20.8104
lhand -19.3181 -8.51966
lfingers 7.12502
lthumb 6.99808 21.3447
rfemur -4.89018 24.9661 25.8071
rtibia 2.27583
rfoot -12.4667 -27.4352
rtoes 4.01467
lfemur 2.13365 -46.8185 -7.7455
ltibia -4.60506
lfoot -20.645 52.1766
ltoes 10.0865
66
root 0.695016 17.4157 8.79917 9.59198 1.3042 -9.65029
lowerback -0.460349 0.489454 6.40806
upperback -9.80175 1.15835 1.96809
thorax -10.1077 0.125873 -1.56357
lowerneck -5.55987 -11.4132 -9.46179
upperneck 20.1446 -16.3385 7.74146
head 8.60733 -7.85688 2.45436
rclavicle -1.05356e-014 -1.07344e-014
rhumerus -46.988 -24.6332 -68.5547
rradius 25.122
rwrist 45.3427
rhand 6.76329 -30.2086
rfingers 7.12502
rthumb 32.0504 -57.4044
lclavicle -1.05356e-014 -1.07344e-014
lhumerus -52.0515 26.5185 65.8815
lradius 25.0339
lwrist -20.7266
lhand -19.3779 -8.37434
lfingers 7.12502
lthumb 6.94036 21.4919
rfemur -4.94817 24.8875 25.7756
rtibia 2.30299
rfoot -12.4401 -27.3197
rtoes 4.03413
lfemur 2.12775 -46.8517 -7.75057
ltibia -4.61516
lfoot -20.7627 52.2522
ltoes 10.1908
67
root 0.694414 17.4165 8.79922 9.57992 1.22695 -9.65062
lowerback -0.438032 0.51223 6.40219
upperback -9.79974 1.19056 1.96884
thorax -10.1163 0.141923 -1.56234
lowerneck -5.59914 -11.2928 -9.37
upperneck 20.1072 -16.1833 7.78891
head 8.58258 -7.77242 2.4753
rclavicle 5.36719e-015 -1.59028e-015
rhumerus -47.019 -24.589 -68.6126
rradius 25.2175
rwrist 45.2233
rhand 6.78035 -30.2717
rfingers 7.12502
rthumb 32.0666 -57.4643
lclavicle 5.36719e-015 -1.59028e-015
lhumerus -52.0858 26.5171 65.9049
lradius 25.0963
lwrist -20.7436
lhand -19.3432 -8.42993
lfingers 7.12502
lthumb 6.97382 21.4352
rfemur -4.94159 24.8832 25.782
rtibia 2.32691
rfoot -12.4349 -27.2441
rtoes 4.10956
lfemur 2.1832 -46.8058 -7.79106
ltibia -4.62284
lfoot -20.9384 52.2685
ltoes 10.4154
68
root 0.694305 17.4162 8.79986 9.5727 1.15955 -9.65403
lowerback -0.43332 0.514354 6.40609
upperback -9.79906 1.19494 1.98323
thorax -10.1184 0.144354 -1.54948
lowerneck -5.74917 -11.1403 -9.1751
upperneck 20.1524 -15.969 7.71678
head 8.5809 -7.65796 2.44199
rclavicle -3.97569e-015 1.31198e-014
rhumerus -47.0091 -24.3694 -68.7975
rradius 25.3451
rwrist 44.9299
rhand 6.81403 -30.3026
rfingers 7.12502
rthumb 32.0987 -57.4887
lclavicle -3.97569e-015 1.31198e-014
lhumerus -52.1367 26.4768 65.9466
lradius 25.1612
lwrist -20.7129
lhand -19.2416 -8.6502
lfingers 7.12502
lthumb 7.07193 21.2117
rfemur -4.93862 24.9203 25.789
rtibia 2.33793
rfoot -12.3751 -27.2332
rtoes 3.9401
lfemur 2.20175 -46.6976 -7.80112
ltibia -4.62181
lfoot -20.9695 52.2196
ltoes 10.3227
69
root 0.694709 17.4154 8.80054 9.56486 1.10987 -9.64596
lowerback -0.627288 0.477619 6.32862
upperback -9.65373 1.12278 2.07305
thorax -9.84377 0.129937 -1.40459
lowerneck -6.05821 -10.9118 -9.02141
upperneck 20.1419 -15.6469 7.74948
head 8.59201 -7.48131 2.45393
rclavicle -5.46658e-015 2.18663e-014
rhumerus -46.6525 -23.9933 -69.1659
rradius 25.4856
rwrist 44.5314
rhand 6.90159 -30.2874
rfingers 7.12502
rthumb 32.182 -57.4566
lclavicle -5.46658e-015 2.18663e-014
lhumerus -51.964 26.5833 66.186
lradius 25.2374
lwrist -20.5569
lhand -19.195 -8.68727
lfingers 7.12502
lthumb 7.11691 21.1731
rfemur -4.93762 24.8956 25.7783
rtibia 2.33924
rfoot -12.3035 -27.1877
rtoes 3.67886
lfemur 2.20788 -46.5775 -7.82289
ltibia -4.60573
lfoot -20.9239 52.1538
ltoes 10.1598
70
root 0.695023 17.4153 8.80054 9.55432 1.08784 -9.64375
lowerback -0.992054 0.440667 6.20348
upperback -9.36651 1.02872 2.20636
thorax -9.31036 0.119069 -1.18677
lowerneck -6.52558 -10.6679 -8.92641
upperneck 20.0312 -15.2982 7.89618
head 8.61025 -7.28191 2.50762
rclavicle 6.26172e-015 -2.94201e-014
rhumerus -46.0116 -23.411 -69.796
rradius 25.7965
rwrist 43.7419
rhand 7.04916 -30.425
rfingers 7.12502
rthumb 32.3225 -57.5657
lclavicle 6.26172e-015 -2.94201e-014
lhumerus -51.5496 26.8932 66.5607
lradius 25.3347
lwrist -20.4596
lhand -19.1687 -8.61036
lfingers 7.12502
lthumb 7.14234 21.2491
rfemur -4.92831 24.8625 25.7797
rtibia 2.35177
rfoot -12.3223 -27.1255
rtoes 3.692
lfemur 2.1934 -46.4007 -7.81862
ltibia -4.58805
lfoot -20.6971 52.0259
ltoes 10.0321
71
root 0.694753 17.4154 8.79968 9.54897 1.09285 -9.65779
lowerback -1.15604 0.445888 6.18051
upperback -9.21968 1.01569 2.25533
thorax -9.04986 0.125733 -1.12172
lowerneck -6.89261 -10.4816 -8.83904
upperneck 20.0704 -15.0547 8.04161
head 8.6718 -7.13393 2.55297
rclavicle 4.87022e-015 1.19271e-014
rhumerus -45.6924 -22.5545 -70.6123
rradius 26.4446
rwrist 42.2939
rhand 7.38076 -30.8543
rfingers 7.12502
rthumb 32.6381 -57.9302
lclavicle 4.87022e-015 1.19271e-014
lhumerus -51.3162 26.9363 66.887
lradius 25.5847
lwrist -20.3633
lhand -18.9462 -8.53057
lfingers 7.12502
lthumb 7.35711 21.3215
rfemur -4.91861 24.8656 25.8029
rtibia 2.35361
rfoot -12.3552 -27.1236
rtoes 3.79956
lfemur 2.15035 -46.271 -7.76995
ltibia -4.56625
lfoot -20.5207 51.9115
ltoes 9.94581
72
root 0.693522 17.4149 8.79862 9.56664 1.10064 -9.67653
lowerback -0.979907 0.481436 6.28831
upperback -9.34161 1.08613 2.19334
thorax -9.28569 0.141011 -1.25192
lowerneck -7.01892 -10.2757 -8.68663
upperneck 20.3264 -14.8391 8.19799
head 8.76163 -6.99865 2.60041
rclavicle 1.79403e-014 -4.25399e-014
rhumerus -45.9135 -21.4967 -71.4869
rradius 27.3732
rwrist 40.3402
rhand 7.83434 -31.3144
rfingers 7.12502
rthumb 33.0695 -58.2999
lclavicle 1.79403e-014 -4.25399e-014
lhumerus -51.4043 26.1941 67.3981
lradius 26.1556
lwrist -19.6932
lhand -18.6477 -8.29906
lfingers 7.12502
lthumb 7.64518 21.5428
rfemur -4.95034 24.908 25.8214
rtibia 2.3633
rfoot -12.3834 -27.1748
rtoes 3.8726
lfemur 2.07548 -46.1998 -7.68385
ltibia -4.55173
lfoot -20.5515 51.84
ltoes 10.0473
